<svg width="67" height="33" viewBox="0 0 67 33" fill="none" xmlns="http://www.w3.org/2000/svg">
<g clip-path="url(#clip0_43_123)" filter="url(#filter0_d_43_123)">
<path opacity="0.2" d="M20.34 15.324C20.34 16.596 20.128 17.764 19.704 18.828C19.28 19.892 18.684 20.808 17.916 21.576C17.148 22.344 16.224 22.94 15.144 23.364C14.064 23.788 12.864 24 11.544 24H4.932V6.648H11.544C12.864 6.648 14.064 6.864 15.144 7.296C16.224 7.72 17.148 8.316 17.916 9.084C18.684 9.844 19.28 10.756 19.704 11.82C20.128 12.884 20.34 14.052 20.34 15.324ZM17.028 15.324C17.028 14.372 16.9 13.52 16.644 12.768C16.396 12.008 16.032 11.368 15.552 10.848C15.08 10.32 14.504 9.916 13.824 9.636C13.152 9.356 12.392 9.216 11.544 9.216H8.172V21.432H11.544C12.392 21.432 13.152 21.292 13.824 21.012C14.504 20.732 15.08 20.332 15.552 19.812C16.032 19.284 16.396 18.644 16.644 17.892C16.9 17.132 17.028 16.276 17.028 15.324ZM30.1205 16.428C30.1205 16.044 30.0645 15.684 29.9525 15.348C29.8485 15.004 29.6885 14.704 29.4725 14.448C29.2565 14.192 28.9805 13.992 28.6445 13.848C28.3165 13.696 27.9325 13.62 27.4925 13.62C26.6365 13.62 25.9605 13.864 25.4645 14.352C24.9765 14.84 24.6645 15.532 24.5285 16.428H30.1205ZM24.4685 18.216C24.5165 18.848 24.6285 19.396 24.8045 19.86C24.9805 20.316 25.2125 20.696 25.5005 21C25.7885 21.296 26.1285 21.52 26.5205 21.672C26.9205 21.816 27.3605 21.888 27.8405 21.888C28.3205 21.888 28.7325 21.832 29.0765 21.72C29.4285 21.608 29.7325 21.484 29.9885 21.348C30.2525 21.212 30.4805 21.088 30.6725 20.976C30.8725 20.864 31.0645 20.808 31.2485 20.808C31.4965 20.808 31.6805 20.9 31.8005 21.084L32.6525 22.164C32.3245 22.548 31.9565 22.872 31.5485 23.136C31.1405 23.392 30.7125 23.6 30.2645 23.76C29.8245 23.912 29.3725 24.02 28.9085 24.084C28.4525 24.148 28.0085 24.18 27.5765 24.18C26.7205 24.18 25.9245 24.04 25.1885 23.76C24.4525 23.472 23.8125 23.052 23.2685 22.5C22.7245 21.94 22.2965 21.252 21.9845 20.436C21.6725 19.612 21.5165 18.66 21.5165 17.58C21.5165 16.74 21.6525 15.952 21.9245 15.216C22.1965 14.472 22.5845 13.828 23.0885 13.284C23.6005 12.732 24.2205 12.296 24.9485 11.976C25.6845 11.656 26.5125 11.496 27.4325 11.496C28.2085 11.496 28.9245 11.62 29.5805 11.868C30.2365 12.116 30.8005 12.48 31.2725 12.96C31.7445 13.432 32.1125 14.016 32.3765 14.712C32.6485 15.4 32.7845 16.188 32.7845 17.076C32.7845 17.524 32.7365 17.828 32.6405 17.988C32.5445 18.14 32.3605 18.216 32.0885 18.216H24.4685ZM43.4596 14.292C43.3716 14.404 43.2836 14.492 43.1956 14.556C43.1156 14.62 42.9956 14.652 42.8356 14.652C42.6836 14.652 42.5356 14.608 42.3916 14.52C42.2476 14.424 42.0756 14.32 41.8756 14.208C41.6756 14.088 41.4356 13.984 41.1556 13.896C40.8836 13.8 40.5436 13.752 40.1356 13.752C39.6156 13.752 39.1596 13.848 38.7676 14.04C38.3756 14.224 38.0476 14.492 37.7836 14.844C37.5276 15.196 37.3356 15.624 37.2076 16.128C37.0796 16.624 37.0156 17.188 37.0156 17.82C37.0156 18.476 37.0836 19.06 37.2196 19.572C37.3636 20.084 37.5676 20.516 37.8316 20.868C38.0956 21.212 38.4156 21.476 38.7916 21.66C39.1676 21.836 39.5916 21.924 40.0636 21.924C40.5356 21.924 40.9156 21.868 41.2036 21.756C41.4996 21.636 41.7476 21.508 41.9476 21.372C42.1476 21.228 42.3196 21.1 42.4636 20.988C42.6156 20.868 42.7836 20.808 42.9676 20.808C43.2076 20.808 43.3876 20.9 43.5076 21.084L44.3596 22.164C44.0316 22.548 43.6756 22.872 43.2916 23.136C42.9076 23.392 42.5076 23.6 42.0916 23.76C41.6836 23.912 41.2596 24.02 40.8196 24.084C40.3876 24.148 39.9556 24.18 39.5236 24.18C38.7636 24.18 38.0476 24.04 37.3756 23.76C36.7036 23.472 36.1156 23.056 35.6116 22.512C35.1076 21.968 34.7076 21.304 34.4116 20.52C34.1236 19.728 33.9796 18.828 33.9796 17.82C33.9796 16.916 34.1076 16.08 34.3636 15.312C34.6276 14.536 35.0116 13.868 35.5156 13.308C36.0196 12.74 36.6436 12.296 37.3876 11.976C38.1316 11.656 38.9876 11.496 39.9556 11.496C40.8756 11.496 41.6796 11.644 42.3676 11.94C43.0636 12.236 43.6876 12.66 44.2396 13.212L43.4596 14.292ZM48.8125 6.168V16.38H49.3645C49.5645 16.38 49.7205 16.356 49.8325 16.308C49.9525 16.252 50.0725 16.144 50.1925 15.984L53.2525 12.204C53.3805 12.036 53.5205 11.908 53.6725 11.82C53.8325 11.732 54.0365 11.688 54.2845 11.688H56.9965L53.1685 16.26C52.8965 16.62 52.6005 16.896 52.2805 17.088C52.4485 17.208 52.5965 17.348 52.7245 17.508C52.8605 17.668 52.9885 17.84 53.1085 18.024L57.2125 24H54.5365C54.3045 24 54.1045 23.964 53.9365 23.892C53.7685 23.812 53.6285 23.672 53.5165 23.472L50.3725 18.804C50.2605 18.62 50.1445 18.5 50.0245 18.444C49.9045 18.388 49.7245 18.36 49.4845 18.36H48.8125V24H45.8485V6.168H48.8125Z" fill="#F9FAFC"/>
<rect x="59" y="20" width="4" height="4" fill="#FF565C"/>
</g>
<defs>
<filter id="filter0_d_43_123" x="-1" y="0" width="68" height="38" filterUnits="userSpaceOnUse" color-interpolation-filters="sRGB">
<feFlood flood-opacity="0" result="BackgroundImageFix"/>
<feColorMatrix in="SourceAlpha" type="matrix" values="0 0 0 0 0 0 0 0 0 0 0 0 0 0 0 0 0 0 127 0" result="hardAlpha"/>
<feOffset dy="4"/>
<feGaussianBlur stdDeviation="2"/>
<feComposite in2="hardAlpha" operator="out"/>
<feColorMatrix type="matrix" values="0 0 0 0 0 0 0 0 0 0 0 0 0 0 0 0 0 0 0.25 0"/>
<feBlend mode="normal" in2="BackgroundImageFix" result="effect1_dropShadow_43_123"/>
<feBlend mode="normal" in="SourceGraphic" in2="effect1_dropShadow_43_123" result="shape"/>
</filter>
<clipPath id="clip0_43_123">
<rect width="60" height="30" fill="white" transform="translate(3)"/>
</clipPath>
</defs>
</svg>
